<svg width="97" height="85" viewBox="0 0 97 85" fill="none" xmlns="http://www.w3.org/2000/svg">
<path d="M90.0946 0H30.0641C26.7487 0 24.061 2.68766 24.061 6.00306V78.0397C24.061 81.3551 26.7487 84.0428 30.0641 84.0428H90.0946C93.41 84.0428 96.0977 81.3551 96.0977 78.0397V6.00306C96.0977 2.68766 93.41 0 90.0946 0Z" fill="#2FB776"/>
<path d="M24.061 63.0322H96.0977V78.0399C96.0977 81.3554 93.4101 84.0429 90.0946 84.0429H30.0641C26.7487 84.0429 24.061 81.3554 24.061 78.0399V63.0322Z" fill="url(#paint0_linear_106_519)"/>
<path d="M60.0796 42.0215H96.0979V63.0322H60.0796V42.0215Z" fill="#229C5B"/>
<path d="M60.0796 21.0107H96.0979V42.0214H60.0796V21.0107Z" fill="#27AE68"/>
<path d="M24.061 6.00306C24.061 2.68766 26.7487 0 30.0641 0H60.0794V21.0107H24.061V6.00306Z" fill="#1D854F"/>
<path d="M24.061 21.0107H60.0794V42.0214H24.061V21.0107Z" fill="#197B43"/>
<path d="M24.061 42.0215H60.0794V63.0322H24.061V42.0215Z" fill="#1B5B38"/>
<path d="M24.061 30.0153C24.061 25.0421 28.0925 21.0107 33.0656 21.0107H51.0748C56.048 21.0107 60.0794 25.0421 60.0794 30.0153V66.0337C60.0794 71.0069 56.048 75.0382 51.0748 75.0382H24.061V30.0153Z" fill="black" fill-opacity="0.3"/>
<path d="M48.0733 15.0078H6.05188C2.73649 15.0078 0.0488281 17.6955 0.0488281 21.0109V63.0323C0.0488281 66.3477 2.73649 69.0353 6.05188 69.0353H48.0733C51.3887 69.0353 54.0763 66.3477 54.0763 63.0323V21.0109C54.0763 17.6955 51.3887 15.0078 48.0733 15.0078Z" fill="url(#paint1_linear_106_519)"/>
<path d="M39.0689 57.0289L30.6109 41.7212L38.6976 27.0137H32.0963L27.104 36.4043L22.1943 27.0137H15.3867L23.5146 41.7212L15.0566 57.0289H21.6579L26.9802 47.081L32.2614 57.0289H39.0689Z" fill="white"/>
<defs>
<linearGradient id="paint0_linear_106_519" x1="24.061" y1="73.5376" x2="96.0977" y2="73.5376" gradientUnits="userSpaceOnUse">
<stop stop-color="#163C27"/>
<stop offset="1" stop-color="#2A6043"/>
</linearGradient>
<linearGradient id="paint1_linear_106_519" x1="0.0488281" y1="42.0216" x2="54.0763" y2="42.0216" gradientUnits="userSpaceOnUse">
<stop stop-color="#185A30"/>
<stop offset="1" stop-color="#176F3D"/>
</linearGradient>
</defs>
</svg>
