<svg width="86" height="86" viewBox="0 0 86 86" fill="none" xmlns="http://www.w3.org/2000/svg">
<path fill-rule="evenodd" clip-rule="evenodd" d="M79.4916 43.0082C79.4916 63.1582 63.1566 79.4916 43.0082 79.4916C22.8582 79.4916 6.5249 63.1566 6.5249 43.0082C6.5249 22.8582 22.8599 6.5249 43.0082 6.5249C63.1582 6.5249 79.4916 22.8599 79.4916 43.0082Z" fill="#F99031"/>
<path fill-rule="evenodd" clip-rule="evenodd" d="M43.4165 6.52979V43.4165H79.4865C79.488 43.2803 79.4917 43.1448 79.4917 43.0083C79.4917 22.9966 63.3783 6.74995 43.4167 6.52995M79.4867 43.4166C79.4833 43.7273 79.476 44.0371 79.4648 44.346C79.476 44.0371 79.4832 43.7273 79.4867 43.4166ZM79.4645 44.3541C79.4533 44.6626 79.4383 44.97 79.4195 45.2763C79.4383 44.97 79.4532 44.6625 79.4645 44.3541ZM79.1477 48.0188C79.0235 48.9228 78.866 49.8163 78.677 50.6971C78.8662 49.8155 79.0235 48.9221 79.1477 48.0188ZM78.2558 52.4471C78.179 52.7346 78.0988 53.0206 78.0153 53.3051C78.099 53.0205 78.1792 52.7345 78.2558 52.4471ZM78.0153 53.3051C77.9332 53.5851 77.8487 53.8636 77.7592 54.1401C77.8478 53.8631 77.9332 53.5845 78.0153 53.3051ZM77.7468 54.1791C77.66 54.4493 77.5698 54.7183 77.477 54.9858C77.57 54.7183 77.66 54.4495 77.7468 54.1791ZM77.1655 55.8473C77.0645 56.1158 76.9603 56.3826 76.8533 56.6481C76.9605 56.3828 77.0645 56.1158 77.1655 55.8473ZM76.8432 56.6731C76.7385 56.9321 76.631 57.1893 76.5205 57.4453C76.631 57.1895 76.7383 56.9321 76.8432 56.6731ZM76.4928 57.5081C76.3833 57.7605 76.2712 58.0115 76.1562 58.2608C76.2712 58.0115 76.3833 57.7608 76.4928 57.5081ZM76.139 58.2985C76.0258 58.5433 75.9098 58.7866 75.7913 59.0286C75.9098 58.7868 76.0258 58.5433 76.139 58.2985ZM75.7435 59.126C75.6285 59.3591 75.511 59.5906 75.3913 59.821C75.5112 59.5908 75.6285 59.3591 75.7435 59.126ZM74.9282 60.6826C74.8058 60.9033 74.6813 61.1225 74.5545 61.3401C74.6813 61.1225 74.8058 60.9031 74.9282 60.6826ZM74.4877 61.4535C74.3672 61.6588 74.245 61.863 74.1205 62.0658C74.245 61.8631 74.3672 61.6588 74.4877 61.4535ZM74.0198 62.2281C73.8987 62.4231 73.7757 62.6173 73.651 62.8098C73.7758 62.6171 73.8987 62.4231 74.0198 62.2281ZM69.1093 68.4925C69.008 68.5963 68.9062 68.6995 68.8037 68.802C68.9062 68.6995 69.008 68.5961 69.1093 68.4925ZM68.4942 69.1076C68.3915 69.2078 68.2887 69.3078 68.185 69.4068C68.2888 69.3078 68.3917 69.2078 68.4942 69.1076ZM67.2022 70.3098C67.1073 70.3938 67.0123 70.4781 66.9167 70.5608C67.0123 70.4778 67.1073 70.3941 67.2022 70.3098ZM66.528 70.8935C66.4415 70.9665 66.3548 71.0393 66.2675 71.1116C66.3547 71.0395 66.4413 70.9666 66.528 70.8935ZM62.9762 73.5411C62.917 73.58 62.8578 73.619 62.7985 73.6573C62.858 73.6188 62.917 73.5798 62.9762 73.5411ZM61.4765 74.4731C61.4262 74.5028 61.3758 74.5323 61.3255 74.5616C61.376 74.5323 61.4262 74.5026 61.4765 74.4731ZM60.6858 74.925C60.6523 74.9436 60.6188 74.9621 60.5852 74.9806C60.6187 74.9621 60.6522 74.9436 60.6858 74.925ZM56.6913 76.8335C56.6728 76.841 56.6543 76.8488 56.6357 76.8563C56.6543 76.8488 56.6727 76.841 56.6913 76.8335ZM55.8668 77.1558C55.848 77.163 55.8292 77.1701 55.8102 77.1773C55.829 77.1701 55.8478 77.163 55.8668 77.1558Z" fill="#D23638"/>
<path fill-rule="evenodd" clip-rule="evenodd" d="M6.52995 43.4167C6.74929 63.3767 22.995 79.4917 43.0083 79.4917C43.1448 79.4917 43.2803 79.488 43.4165 79.4865V43.4165H6.52979M43.4165 79.4865C43.7273 79.4832 44.0371 79.4758 44.3461 79.4647C44.0371 79.4758 43.7273 79.483 43.4165 79.4865ZM77.7581 54.1415C77.754 54.1543 77.7498 54.1672 77.7458 54.1798C77.75 54.167 77.7541 54.1542 77.7581 54.1415ZM77.476 54.9865C77.472 54.9978 77.4681 55.009 77.4643 55.0203C77.4683 55.009 77.4721 54.9978 77.476 54.9865ZM74.5536 61.3418C74.5316 61.3797 74.5091 61.4173 74.487 61.4552C74.5091 61.4173 74.5316 61.3798 74.5536 61.3418ZM73.6503 62.8117C73.6175 62.8625 73.5841 62.913 73.551 62.9637C73.5841 62.913 73.6173 62.8625 73.6503 62.8117ZM71.1063 66.2757C71.038 66.358 70.9693 66.44 70.9003 66.5218C70.9693 66.44 71.0381 66.3582 71.1063 66.2757ZM69.9778 67.5738C69.8963 67.6633 69.8141 67.7522 69.7316 67.8408C69.814 67.7522 69.8961 67.6633 69.9778 67.5738ZM68.8033 68.804C68.7008 68.9065 68.5975 69.0083 68.4938 69.1097C68.5976 69.0083 68.7008 68.9065 68.8033 68.804ZM64.9208 72.1767C64.7603 72.2973 64.5986 72.417 64.4361 72.535C64.5988 72.4168 64.7603 72.2975 64.9208 72.1767ZM62.7981 73.6595C62.6126 73.7795 62.426 73.8977 62.2383 74.0143C62.426 73.8977 62.6128 73.7795 62.7981 73.6595ZM62.0618 74.1237C61.8678 74.2427 61.6725 74.3598 61.4761 74.4752C61.6725 74.3597 61.8678 74.2427 62.0618 74.1237ZM61.3251 74.5638C61.1133 74.687 60.9001 74.808 60.6855 74.9272C60.9 74.8082 61.1133 74.6872 61.3251 74.5638ZM60.585 74.9828C60.3578 75.108 60.1291 75.2307 59.8991 75.351C60.1293 75.2305 60.3578 75.108 60.585 74.9828ZM59.8223 75.3913C59.5921 75.5112 59.3605 75.6285 59.1273 75.7435C59.3603 75.6285 59.592 75.5112 59.8223 75.3913ZM58.251 76.1615C58.0056 76.2745 57.759 76.3847 57.5108 76.4922C57.759 76.3845 58.0058 76.2743 58.251 76.1615ZM57.4453 76.5205C57.1953 76.6283 56.9436 76.7333 56.6911 76.8357C56.944 76.7333 57.1961 76.6283 57.4453 76.5205ZM56.6355 76.8583C56.3806 76.961 56.1241 77.0608 55.8666 77.1578C56.1243 77.0607 56.3806 76.961 56.6355 76.8583ZM54.9981 77.4727C54.7206 77.5692 54.4418 77.6627 54.1615 77.7527C54.442 77.6627 54.721 77.5692 54.9981 77.4727ZM54.1553 77.7542C53.8763 77.8435 53.5956 77.9298 53.3136 78.0127C53.5955 77.9298 53.8761 77.8437 54.1553 77.7542ZM50.6975 78.6765C49.816 78.8657 48.9223 79.023 48.0191 79.1472C48.9231 79.023 49.8165 78.8657 50.6975 78.6765ZM46.1975 79.351C45.8916 79.3775 45.5848 79.4002 45.277 79.419C45.5848 79.4002 45.8918 79.3775 46.1975 79.351ZM45.277 79.419C44.9703 79.4378 44.6625 79.4527 44.3538 79.464C44.6625 79.4528 44.9703 79.4378 45.277 79.419Z" fill="#1186B8"/>
<path opacity="0.25" d="M56.7299 18.4417C56.5317 18.4417 56.3336 18.5181 56.1811 18.6706L45.7241 29.1276L39.194 22.5976C39.194 22.1664 38.8492 21.8216 38.4181 21.8216H22.1214C21.6902 21.8216 21.3454 22.1664 21.3454 22.5976V38.8942C21.3454 39.1114 21.4327 39.3066 21.5745 39.4469L29.4595 47.3319H22.1212C21.69 47.3319 21.3452 47.6767 21.3452 48.1079V64.4046C21.3452 64.6216 21.4325 64.8169 21.5744 64.9572L35.286 78.6689C37.7754 79.2054 40.3582 79.4906 43.0077 79.4906C63.1561 79.4906 79.4911 63.1572 79.4911 43.0072C79.4911 42.2711 79.4671 41.5406 79.4241 40.8152L57.2791 18.6702C57.1266 18.5177 56.9284 18.4414 56.7302 18.4414" fill="black"/>
<path fill-rule="evenodd" clip-rule="evenodd" d="M43.4164 43.4165V79.4865C43.7272 79.4832 44.037 79.4758 44.346 79.4647H44.349C44.3504 79.4647 44.3517 79.4643 44.3529 79.4643C44.6615 79.4532 44.9694 79.4382 45.276 79.4193C45.584 79.4005 45.8909 79.3778 46.1965 79.3513C46.8082 79.2983 47.4155 79.2303 48.0182 79.1475C48.9222 79.0233 49.8157 78.8658 50.6965 78.6768C50.99 78.6138 51.282 78.5477 51.5729 78.4777C51.5732 78.4777 51.5735 78.4775 51.5739 78.4773C51.5744 78.4772 51.5747 78.4772 51.5752 78.477C51.8652 78.4072 52.1539 78.334 52.441 78.2573C52.4419 78.2572 52.4425 78.2568 52.4434 78.2567L52.4464 78.2557C52.7315 78.1795 53.0152 78.1002 53.2975 78.0173C53.2999 78.0167 53.302 78.016 53.3044 78.0153C53.3072 78.0145 53.31 78.0135 53.3129 78.0127C53.5947 77.9298 53.8754 77.8437 54.1545 77.7542C54.1554 77.7538 54.1564 77.7538 54.1572 77.7535C54.1582 77.7532 54.1594 77.7528 54.1605 77.7525C54.441 77.6625 54.7199 77.569 54.9972 77.4725C54.9982 77.4722 54.9992 77.4718 55.0002 77.4715C55.0017 77.471 55.003 77.4703 55.0044 77.4698C55.274 77.376 55.5422 77.2792 55.809 77.1792C55.8279 77.172 55.8467 77.1648 55.8657 77.1577C56.1234 77.0607 56.3797 76.9608 56.6345 76.8582C56.6532 76.8507 56.6717 76.8428 56.6902 76.8353C56.943 76.733 57.1952 76.628 57.4444 76.5202C57.4662 76.5108 57.488 76.5013 57.5099 76.4918C57.758 76.3842 58.0049 76.274 58.25 76.1612C58.2709 76.1515 58.2917 76.1415 58.3125 76.1318C58.5527 76.0207 58.7917 75.9072 59.029 75.791C59.0615 75.7752 59.0939 75.7592 59.1264 75.7432C59.3595 75.6282 59.591 75.5107 59.8214 75.391C59.847 75.3777 59.8725 75.364 59.8982 75.3507C60.1282 75.2303 60.3569 75.1077 60.584 74.9825C60.6175 74.964 60.651 74.9455 60.6847 74.9268C60.8992 74.8078 61.1125 74.6868 61.3244 74.5635C61.3749 74.5342 61.425 74.5045 61.4754 74.475C61.6717 74.3595 61.867 74.2425 62.061 74.1235C62.12 74.0873 62.1787 74.0507 62.2375 74.0142C62.4254 73.8975 62.6119 73.7793 62.7974 73.6593C62.8569 73.6208 62.9159 73.5818 62.975 73.5432C63.1582 73.4232 63.3407 73.3018 63.5215 73.1785C63.5839 73.136 63.6459 73.0928 63.708 73.05C63.8799 72.9313 64.0507 72.8115 64.2204 72.69C64.2922 72.6385 64.3639 72.587 64.4352 72.535C64.5977 72.4168 64.7594 72.2973 64.9199 72.1767C64.993 72.1215 65.0659 72.066 65.1387 72.0103C65.2954 71.8907 65.4512 71.7698 65.6059 71.6477C65.6807 71.5885 65.7552 71.529 65.8295 71.4693C65.976 71.3517 66.1217 71.2333 66.2664 71.1135C66.3535 71.0412 66.4402 70.9685 66.5269 70.8953C66.6572 70.7853 66.7869 70.6745 66.9155 70.5627C67.0112 70.4797 67.1062 70.396 67.201 70.3117C67.319 70.207 67.4367 70.102 67.5532 69.9958C67.655 69.9032 67.7559 69.8097 67.8565 69.7158C67.966 69.6138 68.0754 69.5118 68.1837 69.4085C68.2875 69.3095 68.3904 69.2095 68.4929 69.1093C68.5967 69.008 68.6999 68.9062 68.8024 68.8037C68.9049 68.7012 69.0067 68.5978 69.108 68.4942C69.2075 68.3923 69.3064 68.2902 69.4045 68.1872C69.514 68.0723 69.6227 67.9567 69.7307 67.8405C69.813 67.7518 69.8952 67.663 69.9769 67.5735C70.0937 67.4453 70.2092 67.3163 70.3242 67.1865C70.4025 67.098 70.4807 67.0095 70.5582 66.9202C70.6729 66.7882 70.7865 66.6552 70.8994 66.5213C70.9684 66.4395 71.0372 66.3577 71.1054 66.2752C71.2284 66.1268 71.3499 65.9773 71.4705 65.827C71.5294 65.7538 71.588 65.6807 71.6464 65.607C71.7667 65.4548 71.8855 65.3015 72.0035 65.1473C72.0632 65.0693 72.1229 64.9912 72.1819 64.9127C72.3017 64.7533 72.4199 64.5928 72.537 64.4315C72.5855 64.3647 72.634 64.2978 72.6822 64.2307C72.8067 64.0568 72.9295 63.882 73.051 63.706C73.093 63.6452 73.135 63.5842 73.1767 63.523C73.303 63.3377 73.4275 63.1512 73.5504 62.9635C73.5835 62.9128 73.6167 62.8623 73.6497 62.8115C73.7744 62.619 73.8974 62.4248 74.0185 62.2298C74.0522 62.1758 74.0859 62.1217 74.1192 62.0673C74.2437 61.8645 74.3659 61.6603 74.4864 61.455C74.5085 61.4172 74.531 61.3797 74.553 61.3417C74.6799 61.1238 74.8044 60.9047 74.9267 60.6842C74.945 60.6512 74.9632 60.6182 74.9814 60.5852C75.1065 60.358 75.2292 60.1293 75.3495 59.8993C75.3629 59.8737 75.3765 59.8482 75.3899 59.8225C75.5097 59.5922 75.627 59.3607 75.742 59.1275C75.758 59.095 75.774 59.0627 75.7899 59.0302C75.9084 58.7883 76.0244 58.5448 76.1375 58.3C76.1434 58.2875 76.149 58.2748 76.1549 58.2622C76.2699 58.0128 76.382 57.7622 76.4915 57.5095C76.5007 57.4883 76.51 57.4672 76.5192 57.446C76.6295 57.19 76.7372 56.9328 76.8419 56.6738C76.8439 56.669 76.8459 56.6643 76.8477 56.6595C76.8492 56.656 76.8505 56.6523 76.8519 56.6488C76.9589 56.3835 77.063 56.1165 77.164 55.848C77.1657 55.8437 77.1674 55.8393 77.1689 55.835C77.1702 55.8317 77.1712 55.8282 77.1724 55.8248C77.2725 55.558 77.3697 55.2897 77.4637 55.0198C77.4677 55.0085 77.4715 54.9973 77.4754 54.986C77.5682 54.7185 77.6584 54.4497 77.7452 54.1793C77.7494 54.1665 77.7535 54.1537 77.7575 54.141C77.8462 53.8638 77.9315 53.5853 78.0137 53.306C78.0972 53.0215 78.1775 52.7353 78.2542 52.448C78.2545 52.447 78.2549 52.446 78.2552 52.445C78.2554 52.4442 78.2557 52.4435 78.2559 52.4427C78.3325 52.1555 78.4059 51.8668 78.4755 51.5768C78.4757 51.5763 78.4757 51.576 78.4759 51.5755C78.4759 51.5752 78.476 51.5748 78.4762 51.5745C78.5462 51.2837 78.6125 50.9913 78.6754 50.6978C78.8645 49.8162 79.0219 48.9228 79.146 48.0195C79.2289 47.4168 79.2969 46.8095 79.3499 46.1978C79.3764 45.892 79.399 45.5848 79.4179 45.277C79.4367 44.9705 79.4515 44.6632 79.4629 44.3548C79.4629 44.3533 79.4632 44.3518 79.4632 44.3503C79.4632 44.3492 79.4632 44.348 79.4632 44.3468C79.4744 44.038 79.4815 43.7282 79.485 43.4175H43.415" fill="#39AE39"/>
<path fill-rule="evenodd" clip-rule="evenodd" d="M43.5 1C20.0283 1 1 20.0283 1 43.5C1 66.9717 20.0283 86 43.5 86C66.9717 86 86 66.9717 86 43.5C86 20.0283 66.9717 1 43.5 1ZM44.9712 8.4885C65.1212 8.4885 81.4545 24.8218 81.4545 44.9718C81.4545 65.1218 65.1212 81.4552 44.9712 81.4552C24.8212 81.4552 8.48283 65.1218 8.48283 44.9718C8.48283 24.8218 24.8212 8.4885 44.9712 8.4885Z" fill="black" fill-opacity="0.067"/>
<path fill-rule="evenodd" clip-rule="evenodd" d="M43.5001 1.57178C20.3434 1.57178 1.57178 20.3434 1.57178 43.5001C1.57178 66.6568 20.3434 85.4284 43.5001 85.4284C66.6568 85.4284 85.4285 66.6568 85.4285 43.5001C85.4285 20.3434 66.6568 1.57178 43.5001 1.57178ZM44.4809 7.99778C64.6309 7.99778 80.9643 24.3311 80.9643 44.4811C80.9643 64.6311 64.6309 80.9644 44.4809 80.9644C24.3309 80.9644 7.99261 64.6311 7.99261 44.4811C7.99261 24.3311 24.3309 7.99778 44.4809 7.99778Z" fill="black" fill-opacity="0.129"/>
<path fill-rule="evenodd" clip-rule="evenodd" d="M43.4999 2.22607C20.7049 2.22607 2.22656 20.7044 2.22656 43.4994C2.22656 66.2944 20.7049 84.7728 43.4999 84.7728C66.2949 84.7728 84.7732 66.2944 84.7732 43.4994C84.7732 20.7044 66.2949 2.22607 43.4999 2.22607ZM43.9902 7.50791C64.1402 7.50791 80.4736 23.8412 80.4736 43.9912C80.4736 64.1412 64.1402 80.4746 43.9902 80.4746C23.8402 80.4746 7.5019 64.1412 7.5019 43.9912C7.5019 23.8412 23.8402 7.50791 43.9902 7.50791Z" fill="black" fill-opacity="0.129"/>
<path fill-rule="evenodd" clip-rule="evenodd" d="M43.0066 2.14307C20.4366 2.14307 2.1416 20.4397 2.1416 43.0081C2.1416 65.5781 20.4383 83.8731 43.0066 83.8731C65.5766 83.8731 83.8716 65.5764 83.8716 43.0081C83.8716 20.4381 65.5749 2.14307 43.0066 2.14307ZM43.0066 6.5259C63.1566 6.5259 79.4899 22.8592 79.4899 43.0092C79.4899 63.1592 63.1566 79.4926 43.0066 79.4926C22.8566 79.4926 6.51827 63.1592 6.51827 43.0092C6.51827 22.8592 22.8566 6.5259 43.0066 6.5259Z" fill="white" stroke="black" stroke-opacity="0.31" stroke-width="2.66249"/>
<path d="M56.7297 18.4414C56.5316 18.4414 56.3334 18.5177 56.1809 18.6702L44.6576 30.1936C44.3527 30.4984 44.3527 30.9864 44.6576 31.2912L56.1809 42.8146C56.4857 43.1194 56.9738 43.1194 57.2786 42.8146L68.8019 31.2912C69.1067 30.9864 69.1067 30.4984 68.8019 30.1936L57.2786 18.6702C57.1261 18.5177 56.9279 18.4414 56.7297 18.4414ZM22.1197 21.8206C21.6886 21.8206 21.3438 22.1654 21.3438 22.5966V38.8932C21.3438 39.3244 21.6886 39.6692 22.1197 39.6692H38.4164C38.8476 39.6692 39.1924 39.3244 39.1924 38.8932V22.5966C39.1924 22.1654 38.8476 21.8206 38.4164 21.8206H22.1197ZM22.1197 47.3306C21.6886 47.3306 21.3438 47.6754 21.3438 48.1066V64.4032C21.3438 64.8344 21.6886 65.1792 22.1197 65.1792H38.4164C38.8476 65.1792 39.1924 64.8344 39.1924 64.4032V48.1066C39.1924 47.6754 38.8476 47.3306 38.4164 47.3306H22.1197ZM48.5814 47.3306C48.1502 47.3306 47.8054 47.6754 47.8054 48.1066V64.4032C47.8054 64.8344 48.1502 65.1792 48.5814 65.1792H64.8781C65.3092 65.1792 65.6541 64.8344 65.6541 64.4032V48.1066C65.6541 47.6754 65.3092 47.3306 64.8781 47.3306H48.5814Z" fill="white"/>
</svg>
