<svg width="60" height="81" viewBox="0 0 60 81" fill="none" xmlns="http://www.w3.org/2000/svg">
<mask id="mask0_106_549" style="mask-type:luminance" maskUnits="userSpaceOnUse" x="1" y="1" width="58" height="79">
<path d="M1 1V79.7875H58.3V22.4875L36.8125 1H1Z" fill="white"/>
</mask>
<g mask="url(#mask0_106_549)">
<path d="M1 79.7875V1H58.3V79.7875H1Z" fill="url(#paint0_linear_106_549)"/>
</g>
<path fill-rule="evenodd" clip-rule="evenodd" d="M36.8125 1.00049L58.3 22.488V79.788H1V1.00049H36.8125Z" stroke="#C15127" stroke-width="1.59167"/>
<mask id="mask1_106_549" style="mask-type:luminance" maskUnits="userSpaceOnUse" x="14" y="17" width="32" height="34">
<path d="M14.9429 17.7227V19.5411C15.3002 19.5873 15.8406 19.6852 16.5632 19.8324C17.2858 19.9796 17.8644 20.1468 18.2997 20.3338C18.9212 20.598 19.3255 20.9275 19.511 21.3238C19.698 21.7201 19.7911 22.1905 19.7911 22.734V46.0631C19.7911 46.7005 19.694 47.1971 19.4998 47.5553C19.3056 47.9126 18.9053 48.2158 18.2997 48.4641C18.0036 48.5875 17.484 48.6933 16.7383 48.7785C15.9926 48.8644 15.3941 48.9305 14.9429 48.9766V50.7943H32.8658V48.9766C32.3836 48.9305 31.7938 48.8366 31.0943 48.6965C30.3956 48.5572 29.8894 48.4259 29.5798 48.3002C28.9893 48.0527 28.589 47.7224 28.3789 47.3102C28.1696 46.8979 28.0638 46.4124 28.0638 45.8538V36.5537H30.768C33.0059 36.5537 35.0217 36.3603 36.8163 35.9719C38.6109 35.5835 40.2074 34.9548 41.6057 34.0842C42.9578 33.2446 44.0178 32.1535 44.7874 30.8093C45.5554 29.4652 45.9406 27.8616 45.9406 25.9969C45.9406 23.1996 44.8829 21.1224 42.7708 19.7624C40.6578 18.4031 37.4642 17.7227 33.1921 17.7227H14.9429ZM28.0638 19.8436H29.9984C32.5626 19.8436 34.3453 20.446 35.348 21.6501C36.35 22.855 36.8514 24.6997 36.8514 27.1851C36.8514 29.6251 36.1868 31.4309 34.8586 32.6039C33.5303 33.777 31.5917 34.3635 29.0442 34.3635H28.0638V19.8436Z" fill="white"/>
</mask>
<g mask="url(#mask1_106_549)">
<path d="M-1.59326 34.2587L28.2123 4.45312L53.71 29.9501L23.9044 59.7564L-1.59326 34.2587Z" fill="url(#paint1_linear_106_549)"/>
</g>
<mask id="mask2_106_549" style="mask-type:luminance" maskUnits="userSpaceOnUse" x="36" y="1" width="23" height="22">
<path d="M36.8125 22.4875H58.3L36.8125 1V22.4875Z" fill="white"/>
</mask>
<g mask="url(#mask2_106_549)">
<path d="M26.0688 11.7438L36.8126 1L58.3001 22.4875L47.5563 33.2313L26.0688 11.7438Z" fill="url(#paint2_linear_106_549)"/>
</g>
<path fill-rule="evenodd" clip-rule="evenodd" d="M36.8125 1.00098L58.3 22.4885H36.8125V1.00098Z" stroke="#C15127" stroke-width="1.59167" stroke-linejoin="bevel"/>
<path d="M9.7838 72.1382V56.1873H14.9521C16.9105 56.1873 18.1872 56.2671 18.782 56.4267C19.696 56.6661 20.4612 57.1883 21.0778 57.9935C21.6944 58.7914 22.0026 59.825 22.0026 61.0944C22.0026 62.0737 21.8249 62.897 21.4695 63.5643C21.1141 64.2317 20.6607 64.7576 20.1094 65.142C19.5654 65.5192 19.0105 65.7694 18.4447 65.8928C17.6758 66.0451 16.5624 66.1212 15.1044 66.1212H13.0044V72.1382H9.7838ZM13.0044 58.8857V63.412H14.7671C16.0365 63.412 16.8852 63.3286 17.3131 63.1617C17.7411 62.9949 18.0748 62.7338 18.3141 62.3783C18.5608 62.0229 18.6841 61.6095 18.6841 61.138C18.6841 60.5577 18.5136 60.0789 18.1727 59.7017C17.8318 59.3245 17.4002 59.0888 16.8779 58.9945C16.4935 58.922 15.7209 58.8857 14.5604 58.8857H13.0044ZM24.6466 72.1382V56.1873H29.8149C31.7734 56.1873 33.05 56.2671 33.6448 56.4267C34.5588 56.6661 35.324 57.1883 35.9406 57.9935C36.5572 58.7914 36.8654 59.825 36.8654 61.0944C36.8654 62.0737 36.6877 62.897 36.3323 63.5643C35.9769 64.2317 35.5235 64.7576 34.9722 65.142C34.4282 65.5192 33.8733 65.7694 33.3075 65.8928C32.5386 66.0451 31.4252 66.1212 29.9672 66.1212H27.8672V72.1382H24.6466ZM27.8672 58.8857V63.412H29.6299C30.8993 63.412 31.748 63.3286 32.1759 63.1617C32.6039 62.9949 32.9376 62.7338 33.1769 62.3783C33.4236 62.0229 33.5469 61.6095 33.5469 61.138C33.5469 60.5577 33.3764 60.0789 33.0355 59.7017C32.6946 59.3245 32.263 59.0888 31.7407 58.9945C31.3563 58.922 30.5838 58.8857 29.4232 58.8857H27.8672ZM43.1 72.1382V58.8857H38.367V56.1873H51.0428V58.8857H46.3206V72.1382H43.1Z" fill="white"/>
<defs>
<linearGradient id="paint0_linear_106_549" x1="29.65" y1="79.7883" x2="29.65" y2="1.0008" gradientUnits="userSpaceOnUse">
<stop stop-color="#CC5627"/>
<stop offset="1" stop-color="#F79522"/>
</linearGradient>
<linearGradient id="paint1_linear_106_549" x1="11.1561" y1="47.0079" x2="40.7059" y2="17.4582" gradientUnits="userSpaceOnUse">
<stop stop-color="#D75C25"/>
<stop offset="1" stop-color="#B34B20"/>
</linearGradient>
<linearGradient id="paint2_linear_106_549" x1="36.8126" y1="22.4883" x2="47.5563" y2="11.7446" gradientUnits="userSpaceOnUse">
<stop stop-color="#FEFCE3"/>
<stop offset="0.71" stop-color="#F9DCB6"/>
<stop offset="0.9" stop-color="#EBA065"/>
<stop offset="1" stop-color="#E06F26"/>
</linearGradient>
</defs>
</svg>
