<svg width="97" height="85" viewBox="0 0 97 85" fill="none" xmlns="http://www.w3.org/2000/svg">
<path d="M52.6718 84.0397C76.6282 84.0397 96.0487 65.2268 96.0487 42.0198C96.0487 18.8129 76.6282 0 52.6718 0C28.7154 0 9.29492 18.8129 9.29492 42.0198C9.29492 65.2268 28.7154 84.0397 52.6718 84.0397Z" fill="url(#paint0_linear_106_508)"/>
<mask id="mask0_106_508" style="mask-type:luminance" maskUnits="userSpaceOnUse" x="9" y="0" width="88" height="85">
<path d="M52.6718 84.0397C76.6282 84.0397 96.0487 65.2268 96.0487 42.0198C96.0487 18.8129 76.6282 0 52.6718 0C28.7154 0 9.29492 18.8129 9.29492 42.0198C9.29492 65.2268 28.7154 84.0397 52.6718 84.0397Z" fill="#C4C4C4"/>
</mask>
<g mask="url(#mask0_106_508)">
<path d="M55.77 -6.00293H108.442V45.0212H55.77V-6.00293Z" fill="url(#paint1_linear_106_508)"/>
<path d="M18.5898 30.014C18.5898 25.041 22.7514 21.0098 27.8849 21.0098H52.6717C57.8053 21.0098 61.9667 25.041 61.9667 30.014V66.031C61.9667 71.0041 57.8053 75.0353 52.6717 75.0353H18.5898V30.014Z" fill="black" fill-opacity="0.3"/>
<path d="M3.09814 -6.00293H55.7701V45.0212H3.09814V-6.00293Z" fill="#EB6C4D"/>
</g>
<path d="M49.5736 15.0068H6.1967C2.77436 15.0068 0 17.6944 0 21.0097V63.0295C0 66.3448 2.77436 69.0324 6.1967 69.0324H49.5736C52.996 69.0324 55.7703 66.3448 55.7703 63.0295V21.0097C55.7703 17.6944 52.996 15.0068 49.5736 15.0068Z" fill="url(#paint2_linear_106_508)"/>
<path d="M40.2783 37.3889C40.2783 30.9145 35.8783 27.0127 28.9007 27.0127H18.5898V57.0269H24.9897V47.8939H28.6341C35.1673 47.8939 40.2783 44.2922 40.2783 37.3889ZM33.7894 37.5177C33.7894 40.4332 31.8784 42.3199 28.7674 42.3199H24.9897V32.6295H28.723C31.834 32.6295 33.7894 34.2161 33.7894 37.5177Z" fill="white"/>
<defs>
<linearGradient id="paint0_linear_106_508" x1="9.29492" y1="47.8156" x2="96.0487" y2="47.8156" gradientUnits="userSpaceOnUse">
<stop stop-color="#A73A24"/>
<stop offset="1" stop-color="#F75936"/>
</linearGradient>
<linearGradient id="paint1_linear_106_508" x1="97.5978" y1="24.0112" x2="55.77" y2="24.0112" gradientUnits="userSpaceOnUse">
<stop stop-color="#FDB8A3"/>
<stop offset="1" stop-color="#F1876D"/>
</linearGradient>
<linearGradient id="paint2_linear_106_508" x1="0" y1="45.7456" x2="55.7703" y2="45.7456" gradientUnits="userSpaceOnUse">
<stop stop-color="#A73A24"/>
<stop offset="1" stop-color="#F75936"/>
</linearGradient>
</defs>
</svg>
