<svg width="60" height="81" viewBox="0 0 60 81" fill="none" xmlns="http://www.w3.org/2000/svg">
<mask id="mask0_106_587" style="mask-type:luminance" maskUnits="userSpaceOnUse" x="1" y="1" width="58" height="79">
<path d="M1 1V79.7849H58.2981V22.4868L36.8113 1H1Z" fill="white"/>
</mask>
<g mask="url(#mask0_106_587)">
<path d="M1 79.7849V1H58.2981V79.7849H1Z" fill="url(#paint0_linear_106_587)"/>
</g>
<path fill-rule="evenodd" clip-rule="evenodd" d="M36.8113 1L58.2981 22.4868V79.7849H1V1H36.8113Z" stroke="#528227" stroke-width="1.59161"/>
<mask id="mask1_106_587" style="mask-type:luminance" maskUnits="userSpaceOnUse" x="12" y="20" width="35" height="30">
<path d="M34.2212 20.0996V21.7183C35.6409 21.8567 36.545 22.0255 36.9309 22.226C37.3169 22.4265 37.5102 22.7274 37.5102 23.1285C37.5102 23.4746 37.1752 24.1216 36.5067 25.067C35.8359 26.0141 34.1973 28.041 31.5871 31.1502C30.7021 29.7965 29.9095 28.5861 29.2108 27.5237C28.5128 26.4589 27.9964 25.6511 27.6645 25.0989C27.2762 24.463 27.0175 23.9967 26.887 23.6998C26.7541 23.4022 26.6889 23.1563 26.6889 22.9637C26.6889 22.5762 27.0239 22.2857 27.6956 22.0907C28.3664 21.8981 29.401 21.774 30.7984 21.7183V20.0996H12.81V21.7183C13.4331 21.7597 13.9671 21.8313 14.4112 21.9355C14.8536 22.0398 15.2555 22.1679 15.616 22.3191C16.337 22.5969 17.0262 23.0536 17.6843 23.6887C18.3417 24.3245 18.8931 24.962 19.3348 25.5978C20.2198 26.8695 21.2965 28.4126 22.5682 30.2247C23.8383 32.0359 25.11 33.9021 26.3809 35.8255C25.0408 37.3885 23.7611 38.8623 22.5451 40.2447C21.3291 41.6278 20.2364 42.866 19.2695 43.9587C18.605 44.7203 17.9612 45.3872 17.3373 45.9609C16.7142 46.5355 16.0012 47.0082 15.199 47.3831C14.852 47.5358 14.5035 47.6512 14.1493 47.734C13.7968 47.8176 13.3225 47.8804 12.728 47.9226V49.5397H24.159V47.9226C23.5128 47.8669 22.955 47.7897 22.4846 47.6942C22.0143 47.5971 21.6824 47.4937 21.489 47.3831C21.2264 47.2573 21.0641 47.1292 21.0012 46.9995C20.9392 46.8666 20.9081 46.7058 20.9081 46.5108C20.9081 46.1519 21.2989 45.4182 22.0804 44.312C22.8618 43.2051 24.7033 40.972 27.6056 37.6113C28.4779 38.9125 29.3182 40.1746 30.1267 41.3978C30.9361 42.6217 31.5831 43.6412 32.067 44.4577C32.3845 44.9694 32.6344 45.4214 32.8134 45.8161C32.9933 46.2092 33.0832 46.4973 33.0832 46.6772C33.0832 47.0082 32.8349 47.2756 32.3359 47.4762C31.8377 47.6767 30.73 47.8239 29.0134 47.9226V49.5397H46.9597V47.9226C46.2546 47.8804 45.688 47.804 45.259 47.6942C44.8301 47.5836 44.4497 47.465 44.1179 47.3409C43.412 47.0639 42.7307 46.6047 42.0734 45.9609C41.4169 45.3171 40.8805 44.6789 40.4659 44.0423C39.4003 42.5509 38.2726 40.9545 37.0829 39.2555C35.8924 37.5564 34.4607 35.4491 32.7864 32.9336C34.1432 31.3825 35.2876 30.0695 36.221 28.9951C37.1561 27.9224 38.1349 26.817 39.1584 25.6806C39.8507 24.9198 40.4866 24.2561 41.0675 23.6887C41.6485 23.1213 42.3671 22.6446 43.2257 22.2578C43.6674 22.078 44.0581 21.9467 44.3972 21.8623C44.7362 21.7804 45.1683 21.7318 45.6943 21.7183V20.0996H34.2212Z" fill="white"/>
</mask>
<g mask="url(#mask1_106_587)">
<path d="M-1.95117 34.86L29.2524 3.65723L61.0473 35.4521L29.8437 66.6549L-1.95117 34.86Z" fill="url(#paint1_linear_106_587)"/>
</g>
<mask id="mask2_106_587" style="mask-type:luminance" maskUnits="userSpaceOnUse" x="36" y="1" width="23" height="22">
<path d="M36.8115 22.4868H58.2983L36.8115 1V22.4868Z" fill="white"/>
</mask>
<g mask="url(#mask2_106_587)">
<path d="M26.0684 11.7434L36.8118 1L58.2985 22.4868L47.5552 33.2302L26.0684 11.7434Z" fill="url(#paint2_linear_106_587)"/>
</g>
<path fill-rule="evenodd" clip-rule="evenodd" d="M36.8115 1L58.2983 22.4868H36.8115V1Z" stroke="#528227" stroke-width="1.59161" stroke-linejoin="bevel"/>
<path d="M7.3667 72.1357L12.8177 63.8124L7.87807 56.1854H11.6426L14.8414 61.31L17.9749 56.1854H21.7068L16.7454 63.9321L22.1964 72.1357H18.3122L14.7761 66.6195L11.2292 72.1357H7.3667ZM23.9372 72.1357V56.316H27.1577V69.4483H35.1655V72.1357H23.9372ZM36.6561 66.9459L39.7896 66.6413C39.9782 67.693 40.359 68.4655 40.932 68.9587C41.5123 69.452 42.2921 69.6986 43.2713 69.6986C44.3085 69.6986 45.0883 69.481 45.6105 69.0458C46.14 68.6033 46.4048 68.0883 46.4048 67.5008C46.4048 67.1236 46.2923 66.8045 46.0675 66.5433C45.8499 66.275 45.4654 66.0428 44.9142 65.847C44.537 65.7164 43.6775 65.4843 42.3356 65.1507C40.6093 64.7227 39.3979 64.1968 38.7016 63.573C37.7224 62.6954 37.2328 61.6255 37.2328 60.3634C37.2328 59.551 37.4613 58.793 37.9182 58.0894C38.3824 57.3786 39.0461 56.8382 39.9093 56.4683C40.7797 56.0984 41.8278 55.9134 43.0537 55.9134C45.0556 55.9134 46.5607 56.3522 47.5689 57.2299C48.5844 58.1076 49.1176 59.279 49.1683 60.7442L45.9478 60.8856C45.81 60.066 45.5126 59.4785 45.0556 59.1231C44.6059 58.7604 43.9277 58.579 43.021 58.579C42.0853 58.579 41.3527 58.7713 40.8232 59.1557C40.4823 59.4023 40.3119 59.7323 40.3119 60.1458C40.3119 60.523 40.4714 60.8457 40.7906 61.1141C41.1968 61.455 42.1833 61.8105 43.75 62.1804C45.3167 62.5503 46.4737 62.9347 47.2208 63.3337C47.9751 63.7254 48.5627 64.2657 48.9834 64.9548C49.4113 65.6367 49.6253 66.4817 49.6253 67.4899C49.6253 68.4038 49.3714 69.2597 48.8637 70.0576C48.3559 70.8555 47.6378 71.4503 46.7094 71.842C45.781 72.2264 44.624 72.4186 43.2386 72.4186C41.2222 72.4186 39.6736 71.9544 38.5928 71.026C37.512 70.0903 36.8665 68.7302 36.6561 66.9459Z" fill="white"/>
<defs>
<linearGradient id="paint0_linear_106_587" x1="29.6491" y1="79.7849" x2="29.6491" y2="1.00039" gradientUnits="userSpaceOnUse">
<stop stop-color="#51852A"/>
<stop offset="1" stop-color="#85C440"/>
</linearGradient>
<linearGradient id="paint1_linear_106_587" x1="13.9475" y1="50.7587" x2="45.1504" y2="19.5557" gradientUnits="userSpaceOnUse">
<stop stop-color="#61952F"/>
<stop offset="1" stop-color="#244D0A"/>
</linearGradient>
<linearGradient id="paint2_linear_106_587" x1="36.8118" y1="22.4868" x2="47.5554" y2="11.7432" gradientUnits="userSpaceOnUse">
<stop stop-color="#F2F6D5"/>
<stop offset="0.68" stop-color="#CBDBA7"/>
<stop offset="1" stop-color="#619932"/>
</linearGradient>
</defs>
</svg>
